<svg xmlns="http://www.w3.org/2000/svg" width="50" height="50" style="background:#f2f2f2" viewBox="0 0 50 50">
  <g fill="none" fill-rule="evenodd">
    <circle cx="25" cy="25" r="24.5" fill="#FFF"/>
    <path fill="#000" fill-rule="nonzero" d="M41.1298934,22.1210142 C42.3582088,23.282568 43.1782822,23.7278895 44.6168936,23.7335596 C44.8157314,23.7335596 44.9769213,23.8965378 44.9769213,24.0975817 C44.9769213,24.2986255 44.8157314,24.4616037 44.6168936,24.4616037 C42.8835198,24.4616037 41.9442611,23.9238041 40.4446251,22.4967228 C39.0549143,21.1742483 38.2758542,20.7280441 36.7655204,20.7280441 C35.2472408,20.7280441 34.5024395,21.1523716 33.0865025,22.4966403 C32.9258555,22.6491561 32.8579601,22.7132466 32.7683774,22.7963296 C31.5250436,23.9494545 30.5131755,24.4616037 28.9141472,24.4616037 C27.1807734,24.4616037 26.2415148,23.9238041 24.7418787,22.4967228 C23.3521679,21.1742483 22.5731078,20.7280441 21.0627741,20.7280441 C19.5444945,20.7280441 18.7996931,21.1523716 17.3837562,22.4966403 C17.2231091,22.6491561 17.1552137,22.7132466 17.0656311,22.7963296 C15.8222972,23.9494545 14.8104291,24.4616037 13.2114009,24.4616037 C11.4780271,24.4616037 10.5387684,23.9238041 9.03913235,22.4967228 C7.63896079,21.1642937 6.87961768,20.7280441 5.36002769,20.7280441 C5.16118989,20.7280441 5,20.5650659 5,20.3640221 C5,20.1629782 5.16118989,20 5.36002769,20 C7.09340152,20 8.03266018,20.5377996 9.53229622,21.9648809 C10.922007,23.2873554 11.7010671,23.7335596 13.2114009,23.7335596 C14.5443195,23.7335596 15.3734712,23.3385697 16.4356131,22.3843296 C16.5583068,22.2741002 16.6278869,22.2097139 16.8897434,21.9655988 C17.0587252,21.8080659 17.1098745,21.7605674 17.1939351,21.6836158 C18.4764738,20.5095404 19.4820916,20 21.0904685,20 C22.8238423,20 23.763101,20.5377996 25.262737,21.9648809 C26.6524478,23.2873554 27.4315079,23.7335596 28.9418417,23.7335596 C30.4601213,23.7335596 31.2049226,23.3092322 32.6208596,21.9649634 C32.7815066,21.8124476 32.849402,21.7483571 32.9389847,21.6652741 C34.1823186,20.5121493 35.1941866,20 36.7932149,20 C38.5265887,20 39.4658473,20.5377996 40.9654834,21.9648809 C41.0477023,22.0431244 41.0477023,22.0431244 41.1298934,22.1210142 Z M40.46679,29.0295931 C40.3860126,28.954594 40.3860126,28.954594 40.3052498,28.8798957 C39.0379508,27.7100235 38.2083524,27.2664404 36.7655204,27.2664404 C35.2472408,27.2664404 34.5024395,27.6907678 33.0865025,29.0350366 C32.9258555,29.1875524 32.8579601,29.2516429 32.7683774,29.3347259 C31.5250436,30.4878507 30.5131755,31 28.9141472,31 C27.1807734,31 26.2415148,30.4622004 24.7418787,29.0351191 C23.3521679,27.7126446 22.5731078,27.2664404 21.0627741,27.2664404 C19.5444945,27.2664404 18.7996931,27.6907678 17.3837562,29.0350366 C17.2231091,29.1875524 17.1552137,29.2516429 17.0656311,29.3347259 C15.8222972,30.4878507 14.8104291,31 13.2114009,31 C11.4780271,31 10.5387684,30.4622004 9.03913235,29.0351191 C7.63896079,27.7026899 6.87961768,27.2664404 5.36002769,27.2664404 C5.16118989,27.2664404 5,27.1034622 5,26.9024183 C5,26.7013745 5.16118989,26.5383963 5.36002769,26.5383963 C7.09340152,26.5383963 8.03266018,27.0761959 9.53229622,28.5032772 C10.922007,29.8257517 11.7010671,30.2719559 13.2114009,30.2719559 C14.5443195,30.2719559 15.3734712,29.876966 16.4356131,28.9227258 C16.5583068,28.8124965 16.6278869,28.7481102 16.8897434,28.503995 C17.0453628,28.3588017 17.1181052,28.2912091 17.2036735,28.2128404 C18.4828206,27.0413181 19.4834557,26.5337293 21.0858528,26.5337293 C22.8192266,26.5337293 23.7584852,27.0715289 25.2581213,28.4986103 C26.6478321,29.8210847 27.4268922,30.2672889 28.9372259,30.2672889 C30.4555055,30.2672889 31.2003069,29.8429615 32.6162438,28.4986927 C32.7768909,28.3461769 32.8447863,28.2820864 32.9343689,28.1990034 C34.1777028,27.0458786 35.1895709,26.5337293 36.7885991,26.5337293 C38.5219729,26.5337293 39.4612316,27.0715289 40.9608677,28.4986103 C41.0430866,28.5768537 41.0430866,28.5768537 41.1252777,28.6547435 C42.3614534,29.8237304 43.1841455,30.2672889 44.6399723,30.2672889 C44.8388101,30.2672889 45,30.4302672 45,30.631311 C45,30.8323548 44.8388101,30.9953331 44.6399723,30.9953331 C43.0409441,30.9953331 42.029076,30.4831838 40.7857421,29.3300589 C40.6961595,29.2469759 40.6282641,29.1828855 40.46679,29.0295931 Z"/>
  </g>
</svg>
