<svg xmlns="http://www.w3.org/2000/svg" width="50" height="50" style="background:#f2f2f2" viewBox="0 0 50 50">
  <g fill="none" fill-rule="evenodd">
    <circle cx="25" cy="25" r="24.5" fill="#FFF"/>
    <path fill="#000" fill-rule="nonzero" d="M25,24.5330749 C24.7915458,24.5330749 24.6606719,24.6626333 24.6606719,24.8689922 L24.6606719,26.6157623 C24.6606719,26.8221212 24.7915458,26.9516796 25,26.9516796 C25.2084542,26.9516796 25.3393281,26.8221212 25.3393281,26.6157623 L25.3393281,24.8689922 C25.3393281,24.6626333 25.2084542,24.5330749 25,24.5330749 Z M25,28.1139535 C24.7915458,28.1139535 24.6606719,28.2435119 24.6606719,28.4498708 L24.6606719,30.5459948 C24.6606719,30.7523537 24.7915458,30.8819121 25,30.8819121 C25.2084542,30.8819121 25.3393281,30.7523537 25.3393281,30.5459948 L25.3393281,28.4498708 C25.3393281,28.2700906 25.1921205,28.1139535 25,28.1139535 Z M25,32.0878553 C24.7915458,32.0878553 24.6606719,32.2174137 24.6606719,32.4237726 L24.6606719,34.1705426 C24.6606719,34.3769015 24.7915458,34.5064599 25,34.5064599 C25.2084542,34.5064599 25.3393281,34.3769015 25.3393281,34.1705426 L25.3393281,32.4237726 C25.3393281,32.2174137 25.2084542,32.0878553 25,32.0878553 Z M20.9280624,24.5330749 C20.7196082,24.5330749 20.5887343,24.6626333 20.5887343,24.8689922 L20.5887343,26.6157623 C20.5887343,26.8221212 20.7196082,26.9516796 20.9280624,26.9516796 C21.1365167,26.9516796 21.2673906,26.8221212 21.2673906,26.6157623 L21.2673906,24.8689922 C21.2673906,24.6626333 21.1365167,24.5330749 20.9280624,24.5330749 Z M20.9280624,28.1139535 C20.7196082,28.1139535 20.5887343,28.2435119 20.5887343,28.4498708 L20.5887343,30.5459948 C20.5887343,30.7523537 20.7196082,30.8819121 20.9280624,30.8819121 C21.1365167,30.8819121 21.2673906,30.7523537 21.2673906,30.5459948 L21.2673906,28.4498708 C21.2673906,28.2700906 21.1201829,28.1139535 20.9280624,28.1139535 Z M20.9280624,32.0878553 C20.7196082,32.0878553 20.5887343,32.2174137 20.5887343,32.4237726 L20.5887343,34.1705426 C20.5887343,34.3769015 20.7196082,34.5064599 20.9280624,34.5064599 C21.1365167,34.5064599 21.2673906,34.3769015 21.2673906,34.1705426 L21.2673906,32.4237726 C21.2673906,32.2174137 21.1365167,32.0878553 20.9280624,32.0878553 Z M16.8561249,24.5330749 C16.6476707,24.5330749 16.5167967,24.6626333 16.5167967,24.8689922 L16.5167967,26.6157623 C16.5167967,26.8221212 16.6476707,26.9516796 16.8561249,26.9516796 C17.0645791,26.9516796 17.195453,26.8221212 17.195453,26.6157623 L17.195453,24.8689922 C17.195453,24.6626333 17.0645791,24.5330749 16.8561249,24.5330749 Z M16.8561249,28.1139535 C16.6476707,28.1139535 16.5167967,28.2435119 16.5167967,28.4498708 L16.5167967,30.5459948 C16.5167967,30.7523537 16.6476707,30.8819121 16.8561249,30.8819121 C17.0645791,30.8819121 17.195453,30.7523537 17.195453,30.5459948 L17.195453,28.4498708 C17.195453,28.2700906 17.0482454,28.1139535 16.8561249,28.1139535 Z M16.8561249,32.0878553 C16.6476707,32.0878553 16.5167967,32.2174137 16.5167967,32.4237726 L16.5167967,34.1705426 C16.5167967,34.3769015 16.6476707,34.5064599 16.8561249,34.5064599 C17.0645791,34.5064599 17.195453,34.3769015 17.195453,34.1705426 L17.195453,32.4237726 C17.195453,32.2174137 17.0645791,32.0878553 16.8561249,32.0878553 Z M35,17.0085271 C35,14.2693517 32.7076059,12 29.9406176,12 L26.0587038,12 C23.4075389,12 21.2177416,14.0249978 20.9989697,16.6238728 L20.9048803,16.7160155 C17.9115275,16.9307448 15.525432,19.292856 15.3085224,22.2561207 L15.2316799,22.3466035 C15.1029437,22.378464 15,22.5109457 15,22.6418605 C15,22.8482194 15.1308739,22.9777778 15.3393281,22.9777778 L27.2938582,22.9777778 C27.5023124,22.9777778 27.6331863,22.8482194 27.6331863,22.6418605 C27.6331863,22.5109457 27.5302426,22.378464 27.4015064,22.3466035 L27.3246639,22.2561207 C27.1070361,19.2830441 24.7559783,16.9300423 21.7724186,16.7160155 L21.6785035,16.6052738 C21.9058958,14.3992285 23.8157048,12.6718346 26.0587038,12.6718346 L29.9406176,12.6718346 C32.3499305,12.6718346 34.3213437,14.6095908 34.3213437,17.0085271 L34.3213437,37.6640827 C34.3213437,37.8704416 34.4522177,38 34.6606719,38 C34.8691261,38 35,37.8704416 35,37.6640827 L35,17.0085271 Z M21.2945368,17.3444444 C24.1051884,17.3444444 26.4187522,19.4596118 26.6454012,22.1969353 L26.543943,22.3059432 L16.0892433,22.3059432 L15.9877851,22.1969353 C16.213879,19.466316 18.5211235,17.3444444 21.2945368,17.3444444 Z"/>
  </g>
</svg>
