<svg xmlns="http://www.w3.org/2000/svg" width="50" height="50" style="background:#f2f2f2" viewBox="0 0 50 50">
  <g fill="none" fill-rule="evenodd">
    <circle cx="25" cy="25" r="24.5" fill="#FFF"/>
    <path fill="#333" fill-rule="nonzero" d="M25.0003805,15 C29.3426859,15 33.4791292,16.4358811 36.7930381,18.9881268 C37.0044341,19.1133586 37.0664459,19.4221534 36.920265,19.6216001 C36.7740831,19.8210482 36.4652729,19.8489642 36.2988813,19.6892709 C33.1182554,17.2410165 29.1567302,15.8668441 25.0003805,15.8668441 C20.8440271,15.8668441 16.8825013,17.2410191 13.7140374,19.6788728 C13.5355155,19.8489642 13.2267053,19.8210482 13.0805224,19.6215988 C12.9343431,19.4221497 12.9963544,19.1133585 13.1925949,18.9983948 C16.5216268,16.435884 20.6580711,15 25.0003805,15 Z M25.0003805,20.3129154 C28.2394021,20.3129154 31.2186594,21.3172939 33.5011652,23.1915354 C33.7175197,23.3207056 33.7741833,23.6417981 33.6155755,23.8393314 C33.4569535,24.0370865 33.1361033,24.0449968 32.9857023,23.8721815 C30.8440388,22.1155989 28.0564425,21.1799105 25.0003805,21.1799105 C21.9443184,21.1799105 19.1567221,22.1155989 17.0324614,23.855428 C16.8646056,24.0448336 16.5438566,24.0369259 16.3852338,23.8393917 C16.2265776,23.6417981 16.2832412,23.3207056 16.4812129,23.2044565 C18.7821015,21.3172939 21.7613588,20.3129154 25.0003805,20.3129154 Z M25.0003805,25.3462065 C26.9481061,25.3462065 28.7977219,25.9747323 30.2181319,27.11883 C30.3959628,27.2633785 30.4270753,27.5475597 30.2848341,27.7282927 C30.1425939,27.9090243 29.8630088,27.94057 29.6858488,27.796406 C28.4213387,26.7778867 26.7580849,26.2130506 25.0003805,26.2130506 C23.242676,26.2130506 21.5794222,26.7778867 20.3155013,27.795929 C20.1377521,27.94057 19.858167,27.9090243 19.7159268,27.7282927 C19.5736856,27.5475597 19.6047981,27.2633785 19.7831546,27.1184047 C21.203039,25.9747323 23.0526549,25.3462065 25.0003805,25.3462065 Z M25.0003805,30.6591219 C26.4479498,30.6591219 27.6273451,31.8580353 27.6273451,33.3295609 C27.6273451,34.8010866 26.4479498,36 25.0003805,36 C23.5528111,36 22.3734158,34.8010866 22.3734158,33.3295609 C22.3734158,31.8580353 23.5528111,30.6591219 25.0003805,30.6591219 Z M25.0003805,31.525966 C24.0172412,31.525966 23.2261478,32.3301435 23.2261478,33.3295609 C23.2261478,34.3289604 24.0172511,35.1331559 25.0003805,35.1331559 C25.9835098,35.1331559 26.7746131,34.3289604 26.7746131,33.3295609 C26.7746131,32.3301435 25.9835197,31.525966 25.0003805,31.525966 Z"/>
  </g>
</svg>
